<svg id="visual" viewBox="0 0 900 600" width="900" height="600" xmlns="http://www.w3.org/2000/svg" xmlns:xlink="http://www.w3.org/1999/xlink" version="1.1"><rect x="0" y="0" width="900" height="600" fill="#ffffff"></rect><defs><linearGradient id="grad1_0" x1="33.3%" y1="0%" x2="100%" y2="100%"><stop offset="20%" stop-color="#ffffff" stop-opacity="1"></stop><stop offset="80%" stop-color="#ffffff" stop-opacity="1"></stop></linearGradient></defs><defs><linearGradient id="grad2_0" x1="0%" y1="0%" x2="66.7%" y2="100%"><stop offset="20%" stop-color="#ffffff" stop-opacity="1"></stop><stop offset="80%" stop-color="#ffffff" stop-opacity="1"></stop></linearGradient></defs><g transform="translate(900, 0)"><path d="M0 216.3C-28.7 213.5 -57.4 210.7 -82.8 199.9C-108.2 189 -130.4 170.1 -149.2 149.2C-168 128.3 -183.4 105.6 -194 80.4C-204.6 55.2 -210.5 27.6 -216.3 0L0 0Z" fill="#dc3545"></path></g><g transform="translate(0, 600)"><path d="M0 -216.3C22.8 -195.6 45.7 -174.8 67 -161.7C88.3 -148.5 108 -142.9 132.2 -132.2C156.4 -121.5 185.1 -105.7 199.9 -82.8C214.6 -59.9 215.5 -29.9 216.3 0L0 0Z" fill="#dc3545"></path></g></svg>